<svg xmlns="http://www.w3.org/2000/svg" width="1200" height="360" viewBox="0 0 1200 360" role="img" aria-labelledby="t d"><title id="t">Project archives</title><desc id="d">Three illustrated archive panels representing Recharza, AI workspace, and agent systems.</desc><defs><linearGradient id="bg" x1="0" y1="0" x2="1" y2="1"><stop stop-color="#080b12"/><stop offset="1" stop-color="#111827"/></linearGradient><linearGradient id="g1" x1="0" y1="0" x2="1" y2="1"><stop stop-color="#1e2a43"/><stop offset="1" stop-color="#6d4f5d"/></linearGradient><linearGradient id="g2" x1="0" y1="0" x2="1" y2="1"><stop stop-color="#101827"/><stop offset="1" stop-color="#3b496c"/></linearGradient><linearGradient id="g3" x1="0" y1="0" x2="1" y2="1"><stop stop-color="#121826"/><stop offset="1" stop-color="#433642"/></linearGradient></defs><rect width="1200" height="360" rx="26" fill="url(#bg)"/><g font-family="ui-monospace, SFMono-Regular, Menlo, monospace" fill="#e8dcc8"><text x="36" y="38" font-size="13" letter-spacing="4" opacity=".65">ARCHIVE INDEX // ACTIVE SYSTEMS</text></g>
<g transform="translate(35 62)"><rect width="350" height="255" rx="18" fill="url(#g1)" stroke="#d9c9b2" stroke-opacity=".28"/><circle cx="276" cy="61" r="38" fill="none" stroke="#f0dbc0" stroke-opacity=".55"/><circle cx="276" cy="61" r="18" fill="none" stroke="#f0dbc0" stroke-opacity=".35"/><path d="M0 205l54-38 55 17 42-56 51 38 48-29 50 35 50-24v107H0z" fill="#080a0f"/><path d="M32 174h36v-51h14v-25h10v25h17v51h37v31H32zM206 181h38v-72h15v-31h11v31h14v72h39v24H206z" fill="#0f1420"/><path d="M71 161h12v12H71zM257 133h11v14h-11z" fill="#edc79f" opacity=".38"/><path d="M55 73l27-24 27 24-27 24z" fill="none" stroke="#e8d5ba" stroke-width="2"/><circle cx="82" cy="73" r="5" fill="#e8d5ba"/><text x="26" y="31" fill="#f0e4d2" font-size="12" letter-spacing="3">ARCHIVE 01</text><text x="26" y="239" fill="#f7ead6" font-size="25" font-family="Inter, system-ui, sans-serif" font-weight="700">RECHARZA</text></g>
<g transform="translate(425 62)"><rect width="350" height="255" rx="18" fill="url(#g2)" stroke="#d9c9b2" stroke-opacity=".28"/><g transform="translate(175 105)" fill="none" stroke="#e8d8c0"><circle r="66" opacity=".24"/><circle r="44" opacity=".42" stroke-dasharray="6 7"/><circle r="18" opacity=".8"/><path d="M0-82V82M-82 0H82" opacity=".16"/><circle r="4" fill="#e8d8c0"/></g><path d="M46 174q60-76 128-38q46-60 128 20" fill="none" stroke="#c7c5d7" stroke-opacity=".18" stroke-width="18"/><g fill="#f0dec3" opacity=".55"><circle cx="75" cy="105" r="2"/><circle cx="109" cy="77" r="1.5"/><circle cx="278" cy="87" r="2"/></g><text x="26" y="31" fill="#f0e4d2" font-size="12" letter-spacing="3">ARCHIVE 02</text><text x="26" y="239" fill="#f7ead6" font-size="25" font-family="Inter, system-ui, sans-serif" font-weight="700">AI WORKSPACE</text></g>
<g transform="translate(815 62)"><rect width="350" height="255" rx="18" fill="url(#g3)" stroke="#d9c9b2" stroke-opacity=".28"/><g transform="translate(175 111)" fill="none" stroke="#ead9c3"><circle r="17" fill="#111722"/><circle r="6" fill="#e8d7bd" stroke="none"/><path d="M0-18V-66M0 18v66M-18 0h-66M18 0h66M-13-13l-43-43M13 13l43 43M13-13l43-43M-13 13l-43 43" opacity=".55"/><circle cx="0" cy="-68" r="9"/><circle cx="0" cy="68" r="9"/><circle cx="-84" cy="0" r="9"/><circle cx="84" cy="0" r="9"/><circle cx="-58" cy="-58" r="7"/><circle cx="58" cy="58" r="7"/></g><path d="M0 201l55-27 54 12 56-21 56 17 57-25 72 27v71H0z" fill="#080a0f" opacity=".9"/><text x="26" y="31" fill="#f0e4d2" font-size="12" letter-spacing="3">ARCHIVE 03</text><text x="26" y="239" fill="#f7ead6" font-size="25" font-family="Inter, system-ui, sans-serif" font-weight="700">AGENT SYSTEMS</text></g><rect x="13" y="13" width="1174" height="334" rx="20" fill="none" stroke="#e8d7bd" stroke-opacity=".24"/></svg>