<svg xmlns="http://www.w3.org/2000/svg" width="1100" height="145" viewBox="0 0 1100 145">
<rect width="1100" height="145" rx="18" fill="#0d0f14"/>
<rect x="1" y="1" width="1098" height="143" rx="17" fill="none" stroke="#2a2d35"/>
<g font-family="monospace">
  <text x="34" y="33" font-size="14" fill="#ff69ad">// STATUS DECK</text>
  <g transform="translate(34 52)">
    <rect width="225" height="64" rx="11" fill="#141720" stroke="#2d313b"/>
    <circle cx="22" cy="20" r="5" fill="#ff69ad"/>
    <text x="38" y="25" font-size="13" fill="#8b949e">BUILDING</text>
    <text x="20" y="49" font-size="17" fill="#f4f4f5">systems that survive reality</text>
  </g>
  <g transform="translate(285 52)">
    <rect width="225" height="64" rx="11" fill="#141720" stroke="#2d313b"/>
    <circle cx="22" cy="20" r="5" fill="#b884ff"/>
    <text x="38" y="25" font-size="13" fill="#8b949e">LISTENING</text>
    <text x="20" y="49" font-size="17" fill="#f4f4f5">TOYOKI / OST / noise</text>
  </g>
  <g transform="translate(536 52)">
    <rect width="225" height="64" rx="11" fill="#141720" stroke="#2d313b"/>
    <circle cx="22" cy="20" r="5" fill="#6ee7f5"/>
    <text x="38" y="25" font-size="13" fill="#8b949e">THINKING</text>
    <text x="20" y="49" font-size="17" fill="#f4f4f5">one idea becoming five</text>
  </g>
  <g transform="translate(787 52)">
    <rect width="279" height="64" rx="11" fill="#17131a" stroke="#ff69ad"/>
    <circle cx="22" cy="20" r="5" fill="#ff69ad"/>
    <text x="38" y="25" font-size="13" fill="#ff9bc8">SHIPPING</text>
    <text x="20" y="49" font-size="17" fill="#ffffff">build → verify → recover → ship</text>
  </g>
</g>
</svg>